<svg width="24.17" height="24.17" xmlns="http://www.w3.org/2000/svg">

 <title>24help</title>
 <g>
  <title>Layer 1</title>
  <path stroke="#542c4b" id="svg_1" fill="none" class="cls-1" d="m12.08,14.35a2.27,2.27 0 1 1 2.27,-2.27a2.27,2.27 0 0 1 -2.27,2.27zm0,-3.78a1.5,1.5 0 1 0 1.5,1.5a1.5,1.5 0 0 0 -1.5,-1.5zm0.38,-0.34l0,-6.83a0.38,0.38 0 1 0 -0.76,0l0,6.83a1.94,1.94 0 0 1 0.76,0zm3.87,-2.53a0.38,0.38 0 0 0 -0.54,0l-2.68,2.8a1.9,1.9 0 0 1 0.53,0.54l2.68,-2.8a0.38,0.38 0 0 0 0,-0.53l0.01,-0.01zm-4.25,15.7a11.33,11.33 0 1 1 11.32,-11.3a11.47,11.47 0 0 1 -0.2,2.1a1.13,1.13 0 0 1 0.67,0.54a12.1,12.1 0 1 0 -7.2,8.53l-2.77,0a11.23,11.23 0 0 1 -1.82,0.16l0,-0.03zm1.62,-1.28l0,-0.57l0.72,-0.7c1.76,-1.68 2.56,-2.57 2.56,-3.6a1.22,1.22 0 0 0 -1.35,-1.35a2.34,2.34 0 0 0 -1.46,0.58l-0.3,-0.66a3,3 0 0 1 1.94,-0.7a1.94,1.94 0 0 1 2.1,2c0,1.27 -0.9,2.3 -2.36,3.7l-0.54,0.5l3.08,0l0,0.77l-4.39,0.03zm8.3,0l0,-1.88l-3.2,0l0,-0.6l3.07,-4.4l1,0l0,4.28l1,0l0,0.72l-1,0l0,1.88l-0.87,0zm0,-2.6l0,-2.3c0,-0.36 0,-0.72 0,-1.08c-0.2,0.4 -0.38,0.7 -0.57,1l-1.7,2.36l2.27,0.02z"/>
  <circle stroke="#542c4b" id="svg_2" fill="none" class="cls-1" r="0.75" cy="12.08" cx="20.39"/>
  <circle stroke="#542c4b" id="svg_3" fill="none" class="cls-1" r="0.75" cy="12.08" cx="3.78"/>
 </g>
</svg>