<svg width="24.17" height="24.17" xmlns="http://www.w3.org/2000/svg">

 <title>barcode</title>
 <g>
  <title>Layer 1</title>
  <path stroke="#542c4b" id="svg_1" fill="none" class="cls-1" d="m23.6,20.82l-1.9,-1.82a0.38,0.38 0 0 0 -0.15,-0.1a5.1,5.1 0 1 0 -2.7,2.72a0.4,0.4 0 0 0 0.08,0.16l1.9,1.86a2,2 0 1 0 2.76,-2.78l0.01,-0.04zm-6.75,0.4a4.34,4.34 0 1 1 4.34,-4.33a4.35,4.35 0 0 1 -4.35,4.33l0.01,0zm6.2,1.84a1.24,1.24 0 0 1 -1.7,0l-1.85,-1.82a5.1,5.1 0 0 0 1.7,-1.7l1.86,1.82a1.2,1.2 0 0 1 0,1.7l-0.01,0zm-0.77,-23.06l-20.4,0a1.9,1.9 0 0 0 -1.88,1.9l0,15.85a1.9,1.9 0 0 0 1.9,1.9l9.37,0a5.65,5.65 0 0 1 -0.3,-0.76l-9.09,0a1.13,1.13 0 0 1 -1.14,-1.15l0,-15.84a1.13,1.13 0 0 1 1.16,-1.16l20.38,0a1.14,1.14 0 0 1 1.13,1.13l0,15.87a1.1,1.1 0 0 1 -0.43,0.88l0.5,0.5a2.06,2.06 0 0 0 0.7,-1.38l0,-15.84a1.9,1.9 0 0 0 -1.9,-1.9zm-1.13,3a0.38,0.38 0 0 0 -0.76,0l0,8.74a6.88,6.88 0 0 1 0.75,0.62l0.01,-9.36zm-8.31,9.13l0,-9.13a0.38,0.38 0 0 0 -0.75,0l0,9.86a6.2,6.2 0 0 1 0.74,-0.73l0.01,0zm6.04,-9.13a0.38,0.38 0 0 0 -0.76,0l0,7.76a6,6 0 0 1 0.76,0.2l0,-7.96zm-1.51,7.68l0,-7.68a0.38,0.38 0 0 0 -0.75,0l0,7.64l0.24,0l0.51,0.04zm-2.27,-7.68a0.38,0.38 0 0 0 -0.75,0l0,8.16a6.18,6.18 0 0 1 0.75,-0.28l0,-7.88zm-5.66,-0.36a0.38,0.38 0 0 0 -0.38,0.36l0,12.48a0.38,0.38 0 1 0 0.76,0l0,-12.48a0.38,0.38 0 0 0 -0.38,-0.36zm-1.51,0a0.38,0.38 0 0 0 -0.38,0.36l0,12.48a0.38,0.38 0 1 0 0.75,0l0,-12.48a0.38,0.38 0 0 0 -0.37,-0.36zm-2.27,0a0.38,0.38 0 0 0 -0.36,0.36l0,12.48a0.38,0.38 0 1 0 0.74,0l0,-12.48a0.38,0.38 0 0 0 -0.38,-0.36zm-2.26,0a0.38,0.38 0 0 0 -0.4,0.36l0,12.48a0.38,0.38 0 1 0 0.75,0l0,-12.48a0.38,0.38 0 0 0 -0.35,-0.36z"/>
 </g>
</svg>