<svg width="24.17" height="24.139999999999997" xmlns="http://www.w3.org/2000/svg">

 <title>buy</title>
 <g>
  <title>Layer 1</title>
  <path stroke="#542c4b" id="svg_1" fill="none" class="cls-1" d="m24,19.33a4.45,4.45 0 0 1 -1.24,-1.68a6.8,6.8 0 0 0 -1.5,-2.15l-1.37,-1.34a2.75,2.75 0 0 0 -1.75,-1a1.56,1.56 0 0 0 -0.65,0.15c-0.37,0.17 -0.67,0.35 -0.7,0.36l-1.5,0.9c-0.35,0.24 -0.9,0.58 -1.22,0.77l-3.23,-3.23a1.53,1.53 0 0 0 -2.1,0a1.5,1.5 0 0 0 0,2.1l4.6,4.62c-0.25,0 -0.5,-0.08 -0.75,-0.1a1.58,1.58 0 0 0 -1.77,1.27c-0.1,0.85 0.6,1.58 1.7,1.78l0.3,0a20.56,20.56 0 0 1 6.64,2.24a0.38,0.38 0 0 0 0.44,-0.06c0.9,-0.86 1.52,-1.5 2.15,-2.15s1.2,-1.22 2,-2a0.38,0.38 0 0 0 0,-0.54l-0.05,0.06zm-2.54,2c-0.57,0.6 -1.15,1.18 -1.94,1.94a21.2,21.2 0 0 0 -6.64,-2.2l-0.27,0c-0.56,-0.1 -1.15,-0.43 -1.08,-0.93a0.82,0.82 0 0 1 0.85,-0.64l0.1,0a14.87,14.87 0 0 1 1.88,0.34a0.38,0.38 0 0 0 0.36,-0.63l-5.44,-5.5a0.74,0.74 0 0 1 0,-1a0.75,0.75 0 0 1 1,0l3.44,3.45l1.3,1.3a0.38,0.38 0 0 0 0.27,0.1a0.38,0.38 0 0 0 0.27,-0.64l-1,-0.94c0.25,-0.15 0.58,-0.34 0.86,-0.53l1.06,1.06a0.38,0.38 0 0 0 0.53,0a0.38,0.38 0 0 0 0.1,-0.28a0.38,0.38 0 0 0 -0.1,-0.26l-0.84,-0.96l0.83,-0.5l1,1a0.38,0.38 0 1 0 0.52,-0.53l-0.84,-0.84l0.18,-0.08c0.5,-0.23 0.9,0 1.56,0.66l1.36,1.3a6.1,6.1 0 0 1 1.34,2a4.84,4.84 0 0 0 1.12,1.64c-0.67,0.63 -1.24,1.17 -1.74,1.72l-0.04,-0.05zm-16.53,-17.15a6.78,6.78 0 0 1 1.44,-0.18a2.5,2.5 0 0 1 1.63,0.48a1.3,1.3 0 0 1 0.5,1.08a1.44,1.44 0 0 1 -1,1.34a1.55,1.55 0 0 1 1.27,1.55a1.6,1.6 0 0 1 -0.52,1.22a3,3 0 0 1 -2.1,0.57a9.77,9.77 0 0 1 -1.22,-0.07l0,-5.99zm0.8,2.5l0.7,0c0.82,0 1.3,-0.44 1.3,-1s-0.52,-1 -1.32,-1a3.32,3.32 0 0 0 -0.7,0.05l0.02,1.95zm0,2.9a4.4,4.4 0 0 0 0.65,0c0.8,0 1.56,-0.3 1.56,-1.17s-0.72,-1.14 -1.57,-1.14l-0.67,0l0.03,2.31zm4.89,-5.48l0,3.6c0,1.37 0.6,1.94 1.42,1.94s1.48,-0.6 1.48,-1.93l0,-3.61l0.8,0l0,3.55c0,1.87 -1,2.63 -2.3,2.63s-2.2,-0.7 -2.2,-2.6l0,-3.6l0.8,0.02zm6.38,6.08l0,-2.58l-1.9,-3.5l0.9,0l0.86,1.67c0.23,0.46 0.42,0.83 0.6,1.26c0.17,-0.4 0.4,-0.8 0.62,-1.26l0.92,-1.67l0.9,0l-2,3.5l0,2.6l-0.9,-0.02zm-15.1,3.4a1.13,1.13 0 0 1 -1.14,-1.13l0,-10.55a1.13,1.13 0 0 1 1.14,-1.15l20.35,0a1.13,1.13 0 0 1 1.13,1.13l0,10.55a1.13,1.13 0 0 1 -1.13,1.13l-1.25,0l0.77,0.75l0.5,0a1.9,1.9 0 0 0 1.9,-1.88l0,-10.53a1.9,1.9 0 0 0 -1.93,-1.9l-20.34,0a1.9,1.9 0 0 0 -1.9,1.9l0,10.55a1.9,1.9 0 0 0 1.9,1.88l5.54,0a2.6,2.6 0 0 1 -0.24,-0.75l-5.3,0z"/>
 </g>
</svg>