<svg width="24.17" height="24.17" xmlns="http://www.w3.org/2000/svg">

 <title>card</title>
 <g>
  <title>Layer 1</title>
  <path stroke="#542c4b" id="svg_1" fill="none" class="cls-1" d="m10.55,7.55c-1.67,0 -3.9,-0.2 -5.06,-1.08c-1.8,-1.4 -2.25,-3.63 -1,-5.2a3.3,3.3 0 0 1 2.61,-1.27a4.33,4.33 0 0 1 2.65,1c1.8,1.4 2.6,5.9 2.63,6.1a0.4,0.4 0 0 1 -0.07,0.28a0.38,0.38 0 0 1 -0.3,0.12s-0.6,0.05 -1.45,0.05l-0.01,0zm-3.45,-6.8a2.52,2.52 0 0 0 -2,1c-1,1.25 -0.62,2.98 0.9,4.13c0.76,0.6 2.4,0.92 4.6,0.92l1,0c-0.23,-1.12 -1,-4.2 -2.26,-5.2a3.58,3.58 0 0 0 -2.24,-0.85zm6.16,6.8c-0.67,0 -1.14,0 -1.14,0a0.38,0.38 0 0 1 -0.27,-0.14a0.4,0.4 0 0 1 -0.08,-0.28c0,-0.15 0.63,-3.6 2,-4.7a2.94,2.94 0 0 1 4.23,0.2a2.58,2.58 0 0 1 0.5,2.1a3.38,3.38 0 0 1 -1.3,2a7.13,7.13 0 0 1 -3.94,0.83l0,-0.01zm-0.65,-0.77l0.66,0a6.26,6.26 0 0 0 3.44,-0.68a2.6,2.6 0 0 0 1,-1.54a1.85,1.85 0 0 0 -0.35,-1.48a2.17,2.17 0 0 0 -3.09,-0.08c-0.85,0.64 -1.43,2.67 -1.67,3.78l0.01,0zm-12.23,6.1l23.4,0l0,1.12l-23.38,0l-0.02,-1.12zm21.9,11.29l-20.4,0a1.9,1.9 0 0 1 -1.88,-1.9l0,-12.07a1.9,1.9 0 0 1 1.9,-1.9l20.38,0a1.9,1.9 0 0 1 1.9,1.9l0,12.08a1.9,1.9 0 0 1 -1.9,1.9l0,-0.01zm-20.4,-15.1a1.13,1.13 0 0 0 -1.12,1.13l0,12.08a1.13,1.13 0 0 0 1.13,1.13l20.4,0a1.13,1.13 0 0 0 1.13,-1.12l0,-12.09a1.13,1.13 0 0 0 -1.12,-1.13l-20.42,0zm6.42,10.79l-4.9,0a0.57,0.57 0 0 1 0,-1.13l4.9,0a0.57,0.57 0 1 1 0,1.13z"/>
 </g>
</svg>