<svg width="23.79" height="24.17" xmlns="http://www.w3.org/2000/svg">

 <title>doc</title>
 <g>
  <title>Layer 1</title>
  <path stroke="#542c4b" id="svg_1" fill="none" class="cls-1" d="m14.26,12.46l-3,0a0.38,0.38 0 1 1 0,-0.75l3,0a0.38,0.38 0 1 1 0,0.76l0,-0.01zm0,-3.02l-3,0a0.38,0.38 0 0 1 0,-0.76l3,0a0.38,0.38 0 0 1 0,0.76zm-5.26,6.04l-5.25,0a0.38,0.38 0 1 1 0,-0.75l5.25,0a0.38,0.38 0 1 1 0,0.75zm0,-3.02l-5.25,0a0.38,0.38 0 0 1 0,-0.75l5.25,0a0.38,0.38 0 0 1 0,0.76l0,-0.01zm0,-3.02l-5.25,0a0.38,0.38 0 0 1 0,-0.76l5.25,0a0.38,0.38 0 0 1 0,0.76zm7.5,-3.02l-3.74,0a1.88,1.88 0 0 1 -1.88,-1.9l0,-3.76a0.38,0.38 0 0 1 0.75,0l0,3.78a1.13,1.13 0 0 0 1.12,1.13l3.75,0a0.38,0.38 0 1 1 0,0.75zm7.26,9.08a0.54,0.54 0 0 0 -0.43,-0.37l-4.15,-0.6l-1.85,-3.8a0.56,0.56 0 0 0 -1,0l-1.85,3.8l-4.15,0.6a0.54,0.54 0 0 0 -0.43,0.37a0.55,0.55 0 0 0 0.13,0.55l3,2.95l-0.7,4.16a0.54,0.54 0 0 0 0.2,0.53a0.53,0.53 0 0 0 0.3,0.1a0.53,0.53 0 0 0 0.26,-0.07l3.7,-2l3.7,2a0.52,0.52 0 0 0 0.25,0.06a0.53,0.53 0 0 0 0.3,-0.1a0.55,0.55 0 0 0 0.22,-0.54l-0.64,-4.14l3,-2.95a0.55,0.55 0 0 0 0.14,-0.55zm-3.67,3a0.75,0.75 0 0 0 -0.23,0.67l0.63,3.72l-3.3,-1.8a0.74,0.74 0 0 0 -0.7,0l-3.32,1.75l0.63,-3.72a0.75,0.75 0 0 0 -0.2,-0.67l-2.7,-2.64l3.72,-0.54a0.75,0.75 0 0 0 0.57,-0.4l1.65,-3.4l1.65,3.4a0.75,0.75 0 0 0 0.57,0.4l3.72,0.54l-2.69,2.69zm-8.86,4.9l-9.35,0a1.13,1.13 0 0 1 -1.12,-1.1l0,-20.42a1.13,1.13 0 0 1 1.12,-1.12l9.22,0l5.4,5.45l0,3.2a1.76,1.76 0 0 1 0.35,0a1.72,1.72 0 0 1 0.4,0.05l0,-3.46a0.37,0.37 0 0 0 -0.1,-0.27l-5.62,-5.63a0.38,0.38 0 0 0 -0.27,-0.1l-9.38,0a1.9,1.9 0 0 0 -1.88,1.9l0,20.38a1.88,1.88 0 0 0 1.88,1.9l9.63,0a1.67,1.67 0 0 1 -0.27,-0.77l-0.01,-0.01z"/>
 </g>
</svg>