<svg width="24.17" height="24.16" xmlns="http://www.w3.org/2000/svg">

 <title>dropbox</title>
 <g>
  <title>Layer 1</title>
  <path stroke="#542c4b" id="svg_1" fill="none" class="cls-1" d="m23.8,4.5a0.38,0.38 0 0 0 -0.22,-0.3l-8.3,-4.2a0.38,0.38 0 0 0 -0.38,0l-2.8,1.8l-3.24,-1.75a0.38,0.38 0 0 0 -0.4,0l-8.3,5.3a0.38,0.38 0 0 0 -0.17,0.32a0.38,0.38 0 0 0 0.18,0.33l2.83,1.68l-2.83,1.82a0.38,0.38 0 0 0 -0.17,0.3a0.37,0.37 0 0 0 0.17,0.33l7.93,5.3a0.4,0.4 0 0 0 0.43,0l3.34,-2.35l1.38,2.92a0.4,0.4 0 0 0 0.25,0.2l0.1,0a0.4,0.4 0 0 0 0.2,-0.06l7.94,-5.67a0.38,0.38 0 0 0 0.13,-0.46l-1.33,-3l3.1,-2.16a0.38,0.38 0 0 0 0.15,-0.34l0.01,-0.01zm-22.7,1.15l7.6,-4.83l2.68,1.5l-7.66,4.9l-2.62,-1.57zm10.82,6.46l-7.47,-4.44l7.67,-4.92l7.32,4.1l-7.52,5.26zm-3.62,2.55l-7.23,-4.84l2.67,-1.7l7.5,4.47l-2.94,2.07zm12.75,-4.58l-7.32,5.23l-1.25,-2.65l7.42,-5.2l1.15,2.62zm-0.92,-3.7l-7.3,-4.1l2.3,-1.46l7.54,3.78l-2.54,1.78zm-0.49,5.62l0,1.24a7,7 0 0 1 0.75,0.12l0,-1.9l-0.75,0.54zm-7.18,10.74l0,-8.4l-0.6,-1.27l-0.16,0.1l0,9.6l-7.55,-4.12l0,-5.85l-0.75,-0.5l0,6.58a0.37,0.37 0 0 0 0.2,0.33l8.3,4.54a0.4,0.4 0 0 0 0.18,0a0.35,0.35 0 0 0 0.2,-0.05l1.85,-1.14a6.34,6.34 0 0 1 -0.37,-0.66l-1.3,0.84zm6.8,1.42a4.9,4.9 0 1 1 4.9,-4.9a4.9,4.9 0 0 1 -4.9,4.9zm0,-9.06a4.15,4.15 0 1 0 4.15,4.15a4.16,4.16 0 0 0 -4.14,-4.15l-0.01,0zm-0.68,6.35a0.4,0.4 0 0 1 -0.3,-0.15l-1.36,-1.8a0.38,0.38 0 0 1 0.08,-0.5a0.37,0.37 0 0 1 0.52,0.08l1.06,1.4l2.42,-3.25a0.38,0.38 0 0 1 0.53,-0.07a0.37,0.37 0 0 1 0.07,0.53l-2.72,3.62a0.37,0.37 0 0 1 -0.3,0.15l0,-0.01z"/>
 </g>
</svg>