<svg width="24.17" height="24.17" xmlns="http://www.w3.org/2000/svg">

 <title>home</title>
 <g>
  <title>Layer 1</title>
  <path stroke="#542c4b" id="svg_1" fill="none" class="cls-1" d="m23.6,24.17l-23.03,0a0.38,0.38 0 0 1 0,-0.75l23,0a0.38,0.38 0 1 1 0,0.75l0.03,0zm-16.43,-5.5a0.57,0.57 0 0 1 -0.57,-0.57l0,-2.9a0.57,0.57 0 0 1 1.13,0l0,2.9a0.57,0.57 0 0 1 -0.56,0.57zm8.69,3.33a0.38,0.38 0 0 1 -0.27,-0.64l3.77,-3.75a0.38,0.38 0 0 1 0.53,0.55l-3.78,3.75a0.38,0.38 0 0 1 -0.26,0.1l0.01,-0.01zm1.89,-0.05a0.4,0.4 0 0 1 -0.27,-0.1a0.38,0.38 0 0 1 0,-0.54l1.9,-1.87a0.38,0.38 0 0 1 0.52,0a0.38,0.38 0 0 1 0,0.53l-1.9,1.87a0.38,0.38 0 0 1 -0.25,0.1l0,0.01zm-15.85,1.69a0.38,0.38 0 0 0 0.74,0l0,-9.87a4.22,4.22 0 0 1 -0.75,-0.17l0.01,10.04zm6.84,-9.86l0,9.86a0.38,0.38 0 0 0 0.75,0l0,-9.86c-0.13,0 -0.25,0 -0.37,0a3.9,3.9 0 0 1 -0.4,0l0.02,0zm12.78,9.86a0.38,0.38 0 0 0 0.75,0l0,-10a4.2,4.2 0 0 1 -0.75,0.17l0,9.83zm0.68,-23.64l-20.2,0l-2,8.75l0,0.7a3.23,3.23 0 0 0 6.2,1.32a3.23,3.23 0 0 0 5.9,0a3.23,3.23 0 0 0 5.9,0a3.23,3.23 0 0 0 6.18,-1.32l0,-0.7l-1.98,-8.75zm-16.5,9.45a2.48,2.48 0 0 1 -5,0l0,-0.25l5,0l0,0.25zm0.1,-1l-5,0l1.78,-7.7l3.78,0l-0.56,7.7zm5.8,1a2.48,2.48 0 0 1 -5,0l0,-0.25l5,0l0,0.25zm0,-1l-5,0l0.56,-7.7l4.48,0l-0.04,7.7zm5.88,1a2.48,2.48 0 1 1 -5,0l0,-0.23l5,0l0,0.23zm-5.07,-1l0,-7.68l4.59,0l0.6,7.66l-5.19,0.02zm5.4,-7.7l3.8,0l1.7,7.7l-4.9,0l-0.6,-7.7zm5.6,8.7a2.48,2.48 0 0 1 -5,0l0,-0.23l5,0l0,0.23z"/>
 </g>
</svg>