<svg width="24.17" height="24.16" xmlns="http://www.w3.org/2000/svg">

 <title>offers</title>
 <g>
  <title>Layer 1</title>
  <path stroke="#542c4b" id="svg_1" fill="none" class="cls-1" d="m11.3,9.75c0,1.83 -0.95,2.74 -2.07,2.74s-2,-0.88 -2,-2.62s0.93,-2.7 2.1,-2.7s1.97,0.93 1.97,2.57l0,0.01zm-3.18,0.08c0,1.1 0.4,2 1.14,2s1.12,-0.83 1.12,-2s-0.3,-1.93 -1.14,-1.93s-1.12,0.85 -1.12,1.93zm1,6.32l5.1,-9l0.78,0l-5.1,9l-0.78,0zm7.88,-2.8c0,1.83 -0.95,2.73 -2.07,2.73s-2,-0.87 -2,-2.6s0.93,-2.72 2.1,-2.72s1.97,0.94 1.97,2.6l0,-0.01zm-3.18,0.08c0,1.1 0.4,1.95 1.13,1.95s1.12,-0.82 1.12,-2s-0.3,-1.93 -1.14,-1.93s-1.15,0.88 -1.15,1.98l0.04,0zm-1.74,10.73a0.9,0.9 0 0 1 -0.65,-0.27l-1.43,-1.43l-1.85,0.76a0.94,0.94 0 0 1 -1.15,-0.5l-0.8,-1.85l-2,0a0.92,0.92 0 0 1 -0.93,-0.88l0,-2l-1.85,-0.77a0.93,0.93 0 0 1 -0.5,-1.22l0.77,-1.85l-1.43,-1.43a0.9,0.9 0 0 1 0,-1.3l1.44,-1.42l-0.8,-1.85a0.87,0.87 0 0 1 0,-0.7a0.9,0.9 0 0 1 0.5,-0.5l1.85,-0.77l0,-2a0.92,0.92 0 0 1 0.92,-0.92l2,0l0.83,-1.86a0.94,0.94 0 0 1 1.17,-0.5l1.83,0.8l1.43,-1.44a0.93,0.93 0 0 1 1.3,0l1.42,1.42l1.85,-0.78a0.94,0.94 0 0 1 1.2,0.5l0.8,1.86l2,0a0.92,0.92 0 0 1 0.92,0.92l0,2l1.82,0.82a0.9,0.9 0 0 1 0.5,0.5a0.9,0.9 0 0 1 0,0.7l-0.76,1.8l1.42,1.42a0.9,0.9 0 0 1 0.27,0.65a0.9,0.9 0 0 1 -0.27,0.65l-1.4,1.42l0.74,1.86a0.9,0.9 0 0 1 0,0.7a0.9,0.9 0 0 1 -0.5,0.5l-1.84,0.8l0,2a0.92,0.92 0 0 1 -0.92,0.92l-1.98,0l-0.77,1.85a0.94,0.94 0 0 1 -1.2,0.5l-1.86,-0.76l-1.42,1.43a0.9,0.9 0 0 1 -0.67,0.23l0,-0.01zm-1.88,-2.58l1.8,1.77a0.14,0.14 0 0 0 0.23,0l1.77,-1.77l2.32,1c0.1,0 0.2,0 0.22,-0.1l1,-2.3l2.46,0a0.16,0.16 0 0 0 0.16,-0.18l0,-2.54l2.32,-1a0.15,0.15 0 0 0 0.1,-0.1a0.18,0.18 0 0 0 0,-0.12l-1,-2.3l1.76,-1.78a0.16,0.16 0 0 0 0,-0.12a0.15,0.15 0 0 0 0,-0.1l-1.77,-1.8l1,-2.3a0.2,0.2 0 0 0 0,-0.13a0.16,0.16 0 0 0 -0.1,-0.08l-2.3,-1l0,-2.45a0.16,0.16 0 0 0 -0.17,-0.18l-2.53,0l-1,-2.32a0.17,0.17 0 0 0 -0.16,-0.1l-2.3,1l-1.8,-1.8a0.14,0.14 0 0 0 -0.23,0l-1.78,1.82l-2.32,-1c-0.13,0 -0.2,0 -0.22,0.08l-0.96,2.32l-2.5,0a0.16,0.16 0 0 0 -0.2,0.18l0,2.5l-2.32,1a0.16,0.16 0 0 0 -0.1,0.1a0.2,0.2 0 0 0 0,0.13l1,2.33l-1.76,1.76a0.15,0.15 0 0 0 -0.04,0.1a0.16,0.16 0 0 0 0,0.12l1.8,1.78l-1,2.32a0.16,0.16 0 0 0 0.1,0.2l2.3,1l0,2.48a0.16,0.16 0 0 0 0.17,0.17l2.55,0l1,2.32a0.17,0.17 0 0 0 0.15,0.1l2.35,-1.01z"/>
 </g>
</svg>