<svg width="24.17" height="24.17" xmlns="http://www.w3.org/2000/svg">

 <title>piggy-bank</title>
 <g>
  <title>Layer 1</title>
  <path stroke="#542c4b" id="svg_1" fill="none" class="cls-1" d="m15.48,7.55a3.78,3.78 0 1 1 3.76,-3.78a3.78,3.78 0 0 1 -3.76,3.78zm0,-6.8a3,3 0 1 0 3,3a3,3 0 0 0 -3,-3zm-1.13,9.45l-0.08,0a11.8,11.8 0 0 0 -5.87,0a0.37,0.37 0 0 1 -0.45,-0.28a0.38,0.38 0 0 1 0.28,-0.45a12.53,12.53 0 0 1 6.2,0a0.38,0.38 0 0 1 0.3,0.45a0.38,0.38 0 0 1 -0.38,0.28zm9.55,-1.13a0.38,0.38 0 0 0 -0.47,0.23a1.34,1.34 0 0 1 -0.44,0.5c0,-0.13 0,-0.24 0,-0.37a1.5,1.5 0 1 0 -1.52,1.5c0.15,0 0.27,0 0.4,0a1.6,1.6 0 0 1 -0.3,0.36a2.22,2.22 0 0 1 -1.57,0.43a0.38,0.38 0 0 0 -0.1,0.75l0.33,0a2.82,2.82 0 0 0 1.83,-0.63a2.52,2.52 0 0 0 0.7,-1.1a2.12,2.12 0 0 0 1.34,-1.2a0.38,0.38 0 0 0 -0.2,-0.48l0,0.01zm-3.15,0.35a0.76,0.76 0 1 1 0.76,0.75a0.76,0.76 0 0 1 -0.75,-0.74l-0.01,-0.01zm-0.37,4.9a8,8 0 0 0 -2.82,-6.52a4.56,4.56 0 0 1 -0.8,0.32a7.08,7.08 0 0 1 2.87,6.2a7,7 0 0 1 -3.28,6.4a0.38,0.38 0 0 0 -0.18,0.4l0.37,1.88a0.38,0.38 0 0 1 -0.38,0.38l-2.56,0a0.38,0.38 0 0 1 -0.38,-0.38l0,-0.8a0.38,0.38 0 0 0 -0.14,-0.28a0.37,0.37 0 0 0 -0.24,-0.1l-0.08,0a8.18,8.18 0 0 1 -2.37,0a5.65,5.65 0 0 0 -0.58,0a0.38,0.38 0 0 0 -0.38,0.4l0,0.78a0.38,0.38 0 0 1 -0.38,0.38l-2.55,0a0.4,0.4 0 0 1 -0.4,-0.3l0.4,-2a0.4,0.4 0 0 0 -0.18,-0.4a6.47,6.47 0 0 1 -3,-4.15a0.38,0.38 0 0 0 -0.42,-0.3l-1.75,0.28l-0.36,-4l2,0.2a0.38,0.38 0 0 0 0.4,-0.3a6.55,6.55 0 0 1 2,-3.68a0.38,0.38 0 0 0 0.1,-0.35l-0.66,-3.28c1.48,0.1 3.16,0.68 3.72,1.66a0.38,0.38 0 0 0 0.4,0.18a12.05,12.05 0 0 1 2.6,-0.27l0.7,0a4.5,4.5 0 0 1 -0.54,-0.77l-0.17,0a13.14,13.14 0 0 0 -2.5,0.23c-0.9,-1.24 -3,-1.82 -4.68,-1.82a0.38,0.38 0 0 0 -0.37,0.46l0.71,3.53a7.3,7.3 0 0 0 -2,3.6l-2.1,-0.2a0.4,0.4 0 0 0 -0.3,0.1a0.37,0.37 0 0 0 -0.1,0.3l0.38,4.9a0.37,0.37 0 0 0 0.43,0.34l1.83,-0.28a7.16,7.16 0 0 0 3.07,4.17l-0.35,1.77a1.13,1.13 0 0 0 1.13,1.13l2.56,0a1.13,1.13 0 0 0 1.15,-1.13l0,-0.38l0.1,0a9.5,9.5 0 0 0 2.16,0l0,0.38a1.13,1.13 0 0 0 1.13,1.13l2.56,0a1.14,1.14 0 0 0 1.15,-1.13l-0.3,-1.77a7.77,7.77 0 0 0 3.38,-6.9l0,-0.01z"/>
 </g>
</svg>